<svg id="Capa_1" enable-background="new 0 0 512 512" height="512" viewBox="0 0 512 512" width="512" xmlns="http://www.w3.org/2000/svg"><g><path d="m197.065 93.884h117.871v52.851h-117.871z" fill="#ffbe90"/><path d="m164.994 165.516h182.011v95.636h-182.011z" fill="#ffbe90"/><path d="m237.799 221.867h-72.805v39.284h182.012v-39.284h-72.805z" fill="#ffa96b"/><g><path d="m170.667 93.884h34.133v51.166h-34.133z" fill="#ff6e64"/><path d="m307.2 93.884h34.133v51.166h-34.133z" fill="#ff6e64"/><g fill="#d65651"><path d="m181.106 93.884h23.694v51.166h-23.694z"/><path d="m317.639 93.884h23.694v51.166h-23.694z"/></g></g><g><path d="m273.067 261.151h-34.133v-48.351c0-4.418 3.582-8 8-8h18.133c4.418 0 8 3.582 8 8z" fill="#5f5f6e"/><path d="m136.533 165.516h34.133v95.636h-34.133z" fill="#ff6e64"/><path d="m341.333 165.516h34.133v95.636h-34.133z" fill="#ff6e64"/><path d="m264.825 204.8h-17.65c-1.068 0-2.085.21-3.022.579 3.055 1.206 5.22 4.178 5.22 7.662v48.11h23.694v-48.11c0-4.551-3.69-8.241-8.242-8.241z" fill="#46465c"/><g fill="#d65651"><path d="m146.973 165.516h23.694v95.636h-23.694z"/><path d="m351.773 165.516h23.694v95.636h-23.694z"/></g></g><path d="m324.267 68.267-51.2-44.8h-34.134l-51.2 44.8v6.563h136.534z" fill="#ffbe90"/><path d="m273.067 23.467h-23.694l51.199 44.8v6.563h23.695v-6.563z" fill="#ffa96b"/><path d="m395.508 170.667h-279.016c-4.222 0-5.879-5.475-2.367-7.817l37.325-24.883c1.402-.935 3.049-1.433 4.733-1.433h199.633c1.685 0 3.332.499 4.733 1.433l37.325 24.883c3.513 2.342 1.856 7.817-2.366 7.817z" fill="#5f5f6e"/><path d="m371.192 102.4h-230.384c-4.221 0-5.879-5.475-2.367-7.817l37.325-24.883c1.402-.935 3.049-1.433 4.734-1.433h151c1.685 0 3.332.499 4.733 1.433l37.325 24.883c3.513 2.342 1.856 7.817-2.366 7.817z" fill="#5f5f6e"/><path d="m397.875 162.85-37.325-24.883c-1.402-.935-3.049-1.433-4.734-1.433h-23.694c1.685 0 3.332.499 4.733 1.433l37.325 24.883c3.513 2.342 1.855 7.817-2.367 7.817h23.694c4.223 0 5.88-5.475 2.368-7.817z" fill="#46465c"/><path d="m373.559 94.583-37.325-24.883c-1.402-.935-3.049-1.433-4.733-1.433h-23.694c1.685 0 3.332.499 4.733 1.433l37.325 24.883c3.512 2.342 1.855 7.817-2.367 7.817h23.694c4.222 0 5.879-5.475 2.367-7.817z" fill="#46465c"/><path d="m265.067 34.133h-18.133c-4.418 0-8-3.582-8-8v-18.133c0-4.418 3.582-8 8-8h18.133c4.418 0 8 3.582 8 8v18.133c0 4.419-3.582 8-8 8z" fill="#5f5f6e"/><path d="m264.825 0h-17.65c-1.068 0-2.085.21-3.022.58 3.055 1.206 5.22 4.178 5.22 7.662v17.651c0 3.484-2.165 6.456-5.22 7.662.937.37 1.954.58 3.022.58h17.65c4.552 0 8.241-3.69 8.241-8.241v-17.652c.001-4.552-3.689-8.242-8.241-8.242z" fill="#46465c"/><g><path d="m0 369.329v-45.062l256-18.948 226.603 18.948v162.484h-401.894z" fill="#827373"/></g><path d="m446.293 259.413c-1.612-2.149-4.141-3.413-6.827-3.413h-115.2l-14.441 6.064-19.692-6.064h-68.267l-13.27 11.349-20.863-11.349h-115.2c-2.686 0-5.215 1.265-6.827 3.413l-23.04 30.72v11.072h426.667v-11.072z" fill="#ffe68e"/><path d="m446.293 259.414c-1.612-2.149-4.141-3.413-6.827-3.413h-23.694c2.686 0 5.215 1.264 6.827 3.413l23.04 30.72v11.072h23.694v-11.072z" fill="#ffcd6e"/><path d="m450.759 324.267 61.241-6.138v-19.463c0-4.713-3.82-8.533-8.533-8.533h-494.934c-4.713 0-8.533 3.82-8.533 8.533v25.6h450.759z" fill="#d2e1e1"/><path d="m503.467 290.134h-23.694c4.713 0 8.533 3.82 8.533 8.533v21.837l23.694-2.375v-19.463c0-4.712-3.821-8.532-8.533-8.532z" fill="#afc4c8"/><g><path d="m217.054 295.421h77.893v187.247h-77.893z" fill="#ffcd6e"/><path d="m266.439 295.421h28.507v187.247h-28.507z" fill="#ffb45e"/><path d="m290.133 256h-68.266l-3.091 42.667h74.448z" fill="#ffe68e"/><path d="m218.776 332.8h74.448v34.133h-74.448z" fill="#ffe68e"/><path d="m218.776 401.067h74.448v34.133h-74.448z" fill="#ffe68e"/><g fill="#ffcd6e"><path d="m266.439 298.667h26.785l-3.091-42.667h-23.694z"/><path d="m266.439 401.067h26.785v34.133h-26.785z"/><path d="m266.439 332.8h26.785v34.133h-26.785z"/></g><g fill="#d2e1e1"><path d="m221.867 482.668h-34.134v-226.668h10.44l23.694 5.151z"/><path d="m324.267 482.668h-34.134v-226.668h10.439l23.695 5.151z"/></g><g fill="#afc4c8"><path d="m198.173 256h23.694v226.668h-23.694z"/><path d="m300.572 256h23.694v226.668h-23.694z"/></g></g><g><path d="m114.689 25.6h-12.311c-1.376 0-2.635-.688-3.468-1.784-3.115-4.098-8.032-6.749-13.577-6.749-2.265 0-4.424.447-6.398 1.253-2.059.84-4.421-.124-5.439-2.101-4.955-9.63-14.987-16.219-26.563-16.219-14.238 0-26.141 9.966-29.133 23.302-.341 1.521-1.386 2.823-2.873 3.29-8.633 2.714-14.902 10.761-14.927 20.285-.031 11.766 10.07 21.39 21.837 21.39h93.363c12.04 0 21.751-9.975 21.32-22.111-.411-11.561-10.264-20.556-21.831-20.556z" fill="#fbfdff"/><path d="m136.52 46.156c-.411-11.56-10.263-20.555-21.831-20.555h-12.311c-1.376 0-2.635-.688-3.468-1.784-3.115-4.098-8.032-6.749-13.576-6.749-2.265 0-4.424.447-6.398 1.253-2.059.84-4.421-.124-5.439-2.101-4.957-9.631-14.988-16.22-26.564-16.22-4.208 0-8.203.889-11.833 2.46 6.346 2.752 11.552 7.636 14.703 13.758 1.017 1.977 3.38 2.941 5.439 2.101 1.975-.806 4.133-1.253 6.398-1.253 5.545 0 10.462 2.651 13.577 6.749.833 1.096 2.092 1.784 3.468 1.784h12.311c11.568 0 21.42 8.995 21.831 20.555.432 12.137-9.279 22.111-21.319 22.111h23.692c12.04.002 21.751-9.973 21.32-22.109z" fill="#cdf0ff"/></g><ellipse cx="452.267" cy="42.965" fill="#fecc6e" rx="42.965" ry="42.965" transform="matrix(.205 -.979 .979 .205 317.429 476.797)"/><path d="m452.267 0c-4.141 0-8.141.598-11.93 1.691 17.922 5.172 31.035 21.686 31.035 41.274s-13.112 36.102-31.035 41.274c3.789 1.093 7.788 1.691 11.93 1.691 23.729 0 42.965-19.236 42.965-42.965s-19.236-42.965-42.965-42.965z" fill="#feae5a"/><g><path d="m501.397 309.851-40.732 10.183c-10.633 2.658-19.343 10.261-23.413 20.437l-12.502 31.255c-.941 2.353-2.941 4.121-5.392 4.765l-27.714 7.293c-20.912 5.503-37.98 20.588-46.011 40.665l-21.366 53.416v11.606l187.733-11.604v-159.738c0-5.551-5.217-9.625-10.603-8.278z" fill="#e5d5b8"/><path d="m501.397 309.851-14.472 3.618c.869 1.328 1.381 2.921 1.381 4.66v161.202l23.694-1.464v-159.738c0-5.551-5.217-9.625-10.603-8.278z" fill="#d1c3aa"/></g><path d="m165.495 475.092-12.138-19.816-19.404-29.56-14.064-7.349-4.654-1.804-25.829-6.806-2.608-.687-23.854-10.327-19.115-27.75-6.522-3.266-.789-.197-25.916-6.479c-5.385-1.347-10.602 2.727-10.602 8.278v108.537l166.597 8.26z" fill="#e5d5b8"/><path d="m160.507 440.481c-4.39-8.781-12.349-15.246-21.843-17.745l-50.254-13.241c-2.291-.604-4.212-2.164-5.271-4.284l-11.362-22.723c-2.228-4.456-6.292-7.716-11.126-8.925l-24.132-6.033c3.39 1.624 6.186 4.329 7.896 7.749l11.362 22.723c1.06 2.119 2.98 3.68 5.271 4.284l50.254 13.242c9.494 2.498 17.453 8.964 21.843 17.745l22.361 44.595v7.71l23.694 1.175v-8.884z" fill="#d1c3aa"/><path d="m512 477.867h-512v18.133c0 8.837 7.163 16 16 16h480c8.836 0 16-7.163 16-16z" fill="#d2e1e1"/><path d="m488.306 477.867v17.65c0 9.103-7.38 16.483-16.483 16.483h23.694c9.103 0 16.483-7.38 16.483-16.483v-17.65z" fill="#afc4c8"/></g></svg>