<svg id="Layer_2" height="512" viewBox="0 0 64 64" width="512" xmlns="http://www.w3.org/2000/svg" data-name="Layer 2"><path d="m32 14a1 1 0 0 1 -1-1v-12a1 1 0 0 1 2 0v12a1 1 0 0 1 -1 1z" fill="#970524"/><path d="m16 51v-3h32v10h-32v-4" fill="#e90d39"/><path d="m25 20h14v7h-14z" fill="#e90d39"/><path d="m25 34h14v7h-14z" fill="#e90d39"/><path d="m48 20h-32a32.011 32.011 0 0 0 4.51-1.61 31.917 31.917 0 0 0 4.49-2.39 33.29 33.29 0 0 0 4-3h6l.03.03a32.787 32.787 0 0 0 3.97 2.97 33.364 33.364 0 0 0 9 4z" fill="#17a187"/><path d="m54 34h-44a30.5 30.5 0 0 0 10-4 30.157 30.157 0 0 0 4-3h15c.46.31.95.63 1.45.94 1.09.7 2.27 1.39 3.55 2.06a52.319 52.319 0 0 0 10 4z" fill="#17a187"/><path d="m60 46-12 2h-32l-11.19-1.87-.81-.13a93.982 93.982 0 0 0 14-3q3.165-.945 6-2h17c1.54.7 3.21 1.38 5 2a58.735 58.735 0 0 0 14 3z" fill="#17a187"/><path d="m60 63h-56l1.6-2 2.4-3h48z" fill="#0c6957"/><g fill="#63cfbd"><path d="m35.03 13.03a17.814 17.814 0 0 1 -3.04 1.97 27.064 27.064 0 0 1 -4.81 1.94 41.951 41.951 0 0 1 -6.67 1.45 31.917 31.917 0 0 0 4.49-2.39 33.29 33.29 0 0 0 4-3h6z"/><path d="m40.45 27.94a102.075 102.075 0 0 1 -28.75 6.06h-1.7a30.5 30.5 0 0 0 10-4 30.157 30.157 0 0 0 4-3h15c.46.31.95.63 1.45.94z"/><path d="m37.42 41c-5.07 2.38-15.66 5.94-32.61 5.13l-.81-.13a93.982 93.982 0 0 0 14-3q3.165-.945 6-2z"/><path d="m20.93 58-2.07 2-1.03 1h-12.23l2.4-3z"/></g><path d="m42 46h-1a1 1 0 0 1 0-2h1a1 1 0 0 1 0 2z" fill="#0c6957"/><path d="m37 46h-1a1 1 0 0 1 0-2h1a1 1 0 0 1 0 2z" fill="#0c6957"/><path d="m0 62h64v2h-64z" fill="#02483d"/><path d="m23 48h2v10h-2z" fill="#970524"/><path d="m31 48h2v10h-2z" fill="#970524"/><path d="m39 48h2v10h-2z" fill="#970524"/></svg>