<?xml version="1.0" encoding="UTF-8"?>
<svg xmlns="http://www.w3.org/2000/svg" xmlns:xlink="http://www.w3.org/1999/xlink" version="1.1" id="Capa_1" x="0px" y="0px" viewBox="0 0 512 512" style="enable-background:new 0 0 512 512;" xml:space="preserve" width="512" height="512">
<g>
	<polygon style="fill:#EEB798;" points="371.796,419.627 140.204,419.627 109.548,503.853 402.452,503.853 &#9;"/>
	<rect x="140.204" y="307.994" style="fill:#EEECFF;" width="231.592" height="111.633"/>
	<rect x="140.204" y="169.826" style="fill:#EEECFF;" width="231.592" height="77.588"/>
	<path style="fill:#D3D3FF;" d="M256,360.703c49.246,0,86.411-1.268,115.796-4.129v-48.581H140.204v48.581&#10;&#9;&#9;C169.589,359.435,206.754,360.703,256,360.703z"/>
	<path style="fill:#5972A4;" d="M371.796,247.413c9.282,10.773,29.686,30.97,50.483,44.858c10.489,7.005,7.717,23.097-4.474,26.331&#10;&#9;&#9;c-31.737,8.419-79.617,12.101-161.804,12.101c-82.187,0-130.067-3.682-161.804-12.101c-12.192-3.234-14.964-19.326-4.474-26.331&#10;&#9;&#9;c20.796-13.888,41.201-34.085,50.482-44.858H371.796z"/>
	<path style="fill:#D3D3FF;" d="M140.204,216.734c29.386,2.861,66.551,4.129,115.796,4.129c49.245,0,86.41-1.269,115.796-4.129&#10;&#9;&#9;v-46.908H140.204V216.734z"/>
	<path style="fill:#5972A4;" d="M385.664,122.157c10.174,9.929,23.316,21.394,36.619,30.277c10.488,7.003,7.716,23.093-4.474,26.327&#10;&#9;&#9;c-31.737,8.42-79.618,12.103-161.809,12.103c-82.191,0-130.072-3.682-161.809-12.103c-12.189-3.234-14.961-19.323-4.474-26.327&#10;&#9;&#9;c13.302-8.883,26.445-20.348,36.619-30.277c9.547-9.317,22.322-14.584,35.663-14.584h188.002&#10;&#9;&#9;C363.341,107.573,376.116,112.84,385.664,122.157z"/>
	<path style="fill:#EEECFF;" d="M256,34.752l84.967,69.176c-15.071,13.357-52.321,24.64-84.967,24.64&#10;&#9;&#9;c-32.646,0-69.896-11.284-84.967-24.64L256,34.752z"/>
	<path style="fill:#3B5A9A;" d="M346.92,119.615C303.998,97.715,274.906,73.949,256,56.699&#10;&#9;&#9;c-18.906,17.25-47.998,41.016-90.92,62.917c-10.059,5.136-22.379,1.139-27.512-8.921c-5.134-10.061-1.139-22.379,8.922-27.512&#10;&#9;&#9;c49.324-25.167,77.619-52.322,94.525-68.548l0.827-0.793c7.914-7.592,20.403-7.592,28.317,0l0.827,0.793&#10;&#9;&#9;c16.906,16.225,45.201,43.38,94.525,68.548c10.061,5.133,14.056,17.451,8.922,27.512&#10;&#9;&#9;C369.291,120.77,356.968,124.742,346.92,119.615z"/>
	<path style="fill:#EC9A83;" d="M109.548,503.853h115.474c11.317-21.842,8.382-51.013-18.219-71.216&#10;&#9;&#9;c0.134-4.367-0.252-8.731-1.136-13.01h-65.463L109.548,503.853z"/>
	<path style="fill:#FFD1E2;" d="M194.514,461.832c-3.707-4.003-8.294-7.455-13.62-10.108c-4.772-2.377-6.909-7.893-5.288-12.972&#10;&#9;&#9;c0.797-2.496,1.223-5.123,1.223-7.836c0-21.376-25.082-34.888-46.833-27.832c-3.593,1.166-7.499,0.455-10.387-1.98&#10;&#9;&#9;c-8.809-7.427-20.891-12.012-34.228-12.012c-27.759,0-49.803,19.818-48.799,43.246c0.168,3.908-1.693,7.608-5.025,9.658&#10;&#9;&#9;c-12.518,7.702-20.609,19.018-23.421,31.291c-3.587,15.659,8.434,30.565,24.499,30.565h143.342&#10;&#9;&#9;C197.79,503.853,209.334,477.836,194.514,461.832z"/>
	<path style="fill:#EC9A83;" d="M371.796,419.627h-65.468c-0.876,4.245-1.266,8.605-1.131,13.011&#10;&#9;&#9;c-26.636,20.224-29.546,49.383-18.217,71.215h115.471L371.796,419.627z"/>
	<path style="fill:#FFD1E2;" d="M317.486,461.832c3.707-4.003,8.294-7.455,13.62-10.108c4.772-2.377,6.909-7.893,5.288-12.972&#10;&#9;&#9;c-0.797-2.496-1.223-5.123-1.223-7.836c0-21.376,25.082-34.888,46.833-27.832c3.593,1.166,7.499,0.455,10.387-1.98&#10;&#9;&#9;c8.809-7.427,20.891-12.012,34.228-12.012c27.759,0,49.803,19.818,48.799,43.246c-0.168,3.908,1.693,7.608,5.025,9.658&#10;&#9;&#9;c12.518,7.702,20.609,19.018,23.421,31.291c3.587,15.659-8.434,30.565-24.499,30.565H336.022&#10;&#9;&#9;C314.21,503.853,302.666,477.836,317.486,461.832z"/>
	<g>
		<g>
			<path style="fill:#FF96C0;" d="M428.838,243.392c-0.816,6.892,5.026,12.734,11.919,11.919&#10;&#9;&#9;&#9;&#9;c10.538-1.247,25.352-5.022,35.899-13.666c24.293-19.909,6.894-32.413-6.732-26.116c-0.825,0.381-1.685-0.479-1.304-1.304&#10;&#9;&#9;&#9;&#9;c6.297-13.626-6.207-31.024-26.116-6.732C433.86,218.04,430.085,232.854,428.838,243.392z"/>
		</g>
		<g>
			<path style="fill:#FF96C0;" d="M422.995,447.024c-1.001,8.456,6.167,15.623,14.622,14.622&#10;&#9;&#9;&#9;&#9;c12.929-1.53,31.103-6.161,44.043-16.767c29.803-24.426,8.458-39.766-8.259-32.041c-1.012,0.468-2.067-0.587-1.599-1.599&#10;&#9;&#9;&#9;&#9;c7.725-16.717-7.615-38.062-32.041-8.259C429.156,415.921,424.526,434.095,422.995,447.024z"/>
		</g>
		<g>
			<path style="fill:#FF96C0;" d="M24.492,422.758c-1.001,8.456,6.167,15.623,14.622,14.622c12.929-1.53,31.103-6.161,44.043-16.767&#10;&#9;&#9;&#9;&#9;c29.804-24.426,8.458-39.766-8.259-32.041c-1.012,0.468-2.067-0.587-1.599-1.599c7.725-16.717-7.615-38.062-32.041-8.259&#10;&#9;&#9;&#9;&#9;C30.653,391.655,26.022,409.829,24.492,422.758z"/>
		</g>
		<g>
			<path style="fill:#FF96C0;" d="M33.303,87.114c-1.001,8.456,6.167,15.623,14.623,14.623c12.929-1.53,31.103-6.161,44.043-16.767&#10;&#9;&#9;&#9;&#9;c29.803-24.426,8.458-39.766-8.259-32.041c-1.012,0.468-2.067-0.587-1.599-1.599c7.725-16.717-7.615-38.062-32.041-8.259&#10;&#9;&#9;&#9;&#9;C39.464,56.011,34.833,74.185,33.303,87.114z"/>
		</g>
	</g>
	<g>
		<path style="fill:none;stroke:#000000;stroke-width:15;stroke-linecap:round;stroke-linejoin:round;stroke-miterlimit:10;" d="&#10;&#9;&#9;&#9;M343.513,71.063c6.825,4.055,14.145,8.112,21.997,12.119c10.061,5.133,14.056,17.451,8.922,27.512&#10;&#9;&#9;&#9;c-5.141,10.076-17.464,14.048-27.512,8.921C303.998,97.715,274.906,73.949,256,56.699c-18.906,17.25-47.998,41.016-90.92,62.917&#10;&#9;&#9;&#9;c-10.059,5.136-22.379,1.139-27.512-8.921c-5.134-10.061-1.139-22.379,8.922-27.512c49.324-25.167,77.619-52.322,94.525-68.548&#10;&#9;&#9;&#9;l0.827-0.793c7.914-7.592,20.403-7.592,28.317,0l0.827,0.793c9.799,9.405,23.425,22.482,42.755,36.715"/>
		<path style="fill:none;stroke:#000000;stroke-width:15;stroke-linecap:round;stroke-linejoin:round;stroke-miterlimit:10;" d="&#10;&#9;&#9;&#9;M181.251,110.923c18.201,10.076,48.014,17.645,74.749,17.645s56.548-7.569,74.749-17.645"/>
		<path style="fill:none;stroke:#000000;stroke-width:15;stroke-linecap:round;stroke-linejoin:round;stroke-miterlimit:10;" d="&#10;&#9;&#9;&#9;M139.027,113.086c-4.624,2.343-8.913,5.384-12.691,9.071c-10.174,9.929-23.316,21.394-36.619,30.277&#10;&#9;&#9;&#9;c-10.488,7.003-7.716,23.092,4.474,26.326c31.737,8.421,79.618,12.103,161.809,12.103s130.072-3.682,161.809-12.103&#10;&#9;&#9;&#9;c12.189-3.234,14.961-19.323,4.474-26.326c-13.302-8.883-26.445-20.348-36.619-30.277c-3.778-3.687-8.067-6.728-12.691-9.071"/>
		
			<line style="fill:none;stroke:#000000;stroke-width:15;stroke-linecap:round;stroke-linejoin:round;stroke-miterlimit:10;" x1="371.796" y1="247.414" x2="371.796" y2="186.553"/>
		
			<line style="fill:none;stroke:#000000;stroke-width:15;stroke-linecap:round;stroke-linejoin:round;stroke-miterlimit:10;" x1="140.204" y1="186.553" x2="140.204" y2="247.414"/>
		<g>
			<path style="fill:none;stroke:#000000;stroke-width:15;stroke-linecap:round;stroke-linejoin:round;stroke-miterlimit:10;" d="&#10;&#9;&#9;&#9;&#9;M428.838,243.392c-0.816,6.892,5.026,12.734,11.919,11.919c10.538-1.247,25.352-5.022,35.899-13.666&#10;&#9;&#9;&#9;&#9;c24.293-19.909,6.894-32.413-6.732-26.116c-0.825,0.381-1.685-0.479-1.304-1.304c6.297-13.626-6.207-31.024-26.116-6.732&#10;&#9;&#9;&#9;&#9;C433.86,218.04,430.085,232.854,428.838,243.392z"/>
		</g>
		<g>
			<path style="fill:none;stroke:#000000;stroke-width:15;stroke-linecap:round;stroke-linejoin:round;stroke-miterlimit:10;" d="&#10;&#9;&#9;&#9;&#9;M422.995,447.024c-1.001,8.456,6.167,15.623,14.622,14.622c12.929-1.53,31.103-6.161,44.043-16.767&#10;&#9;&#9;&#9;&#9;c29.803-24.426,8.458-39.766-8.259-32.041c-1.012,0.468-2.067-0.587-1.599-1.599c7.725-16.717-7.615-38.062-32.041-8.259&#10;&#9;&#9;&#9;&#9;C429.156,415.921,424.526,434.095,422.995,447.024z"/>
		</g>
		<g>
			<path style="fill:none;stroke:#000000;stroke-width:15;stroke-linecap:round;stroke-linejoin:round;stroke-miterlimit:10;" d="&#10;&#9;&#9;&#9;&#9;M24.492,422.758c-1.001,8.456,6.167,15.623,14.622,14.622c12.929-1.53,31.103-6.161,44.043-16.767&#10;&#9;&#9;&#9;&#9;c29.804-24.426,8.458-39.766-8.259-32.041c-1.012,0.468-2.067-0.587-1.599-1.599c7.725-16.717-7.615-38.062-32.041-8.259&#10;&#9;&#9;&#9;&#9;C30.653,391.655,26.022,409.829,24.492,422.758z"/>
		</g>
		<g>
			<path style="fill:none;stroke:#000000;stroke-width:15;stroke-linecap:round;stroke-linejoin:round;stroke-miterlimit:10;" d="&#10;&#9;&#9;&#9;&#9;M33.303,87.114c-1.001,8.456,6.167,15.623,14.623,14.623c12.929-1.53,31.103-6.161,44.043-16.767&#10;&#9;&#9;&#9;&#9;c29.803-24.426,8.458-39.766-8.259-32.041c-1.012,0.468-2.067-0.587-1.599-1.599c7.725-16.717-7.615-38.062-32.041-8.259&#10;&#9;&#9;&#9;&#9;C39.464,56.011,34.833,74.185,33.303,87.114z"/>
		</g>
		<path style="fill:none;stroke:#000000;stroke-width:15;stroke-linecap:round;stroke-linejoin:round;stroke-miterlimit:10;" d="&#10;&#9;&#9;&#9;M371.796,247.413c9.282,10.773,29.686,30.97,50.483,44.858c10.489,7.005,7.717,23.097-4.474,26.331&#10;&#9;&#9;&#9;c-31.737,8.419-79.617,12.101-161.804,12.101c-82.187,0-130.067-3.682-161.804-12.101c-12.192-3.234-14.964-19.326-4.474-26.331&#10;&#9;&#9;&#9;c20.796-13.888,41.201-34.085,50.482-44.858H371.796z"/>
		<path style="fill:none;stroke:#000000;stroke-width:15;stroke-linecap:round;stroke-linejoin:round;stroke-miterlimit:10;" d="&#10;&#9;&#9;&#9;M448.936,393.723c-6.675-2.948-14.252-4.631-22.317-4.631c-13.336,0-25.418,4.585-34.228,12.013&#10;&#9;&#9;&#9;c-2.888,2.435-6.794,3.145-10.387,1.979c-21.751-7.056-46.833,6.456-46.833,27.832c0,2.713,0.426,5.34,1.223,7.836&#10;&#9;&#9;&#9;c1.621,5.079-0.516,10.595-5.288,12.972c-5.327,2.654-9.914,6.106-13.62,10.108c-14.82,16.004-3.276,42.02,18.536,42.02h143.342&#10;&#9;&#9;&#9;c16.065,0,28.086-14.906,24.499-30.565c-2.61-11.394-9.777-21.959-20.806-29.577"/>
		<path style="fill:none;stroke:#000000;stroke-width:15;stroke-linecap:round;stroke-linejoin:round;stroke-miterlimit:10;" d="&#10;&#9;&#9;&#9;M62.23,503.853h113.748c21.812,0,33.357-26.016,18.536-42.02c-3.707-4.003-8.294-7.455-13.62-10.108&#10;&#9;&#9;&#9;c-4.772-2.377-6.909-7.893-5.288-12.972c0.797-2.496,1.223-5.123,1.223-7.836c0-21.376-25.082-34.888-46.833-27.832&#10;&#9;&#9;&#9;c-3.593,1.166-7.499,0.455-10.387-1.979c-6.875-5.797-15.749-9.85-25.651-11.355"/>
		<path style="fill:none;stroke:#000000;stroke-width:15;stroke-linecap:round;stroke-linejoin:round;stroke-miterlimit:10;" d="&#10;&#9;&#9;&#9;M35.62,437.317c-0.848,1.898-2.22,3.546-4.062,4.679c-12.518,7.702-20.609,19.018-23.421,31.291&#10;&#9;&#9;&#9;c-3.139,13.702,5.673,26.827,18.687,29.894"/>
		
			<line style="fill:none;stroke:#000000;stroke-width:15;stroke-linecap:round;stroke-linejoin:round;stroke-miterlimit:10;" x1="174.28" y1="419.627" x2="337.72" y2="419.627"/>
		
			<line style="fill:none;stroke:#000000;stroke-width:15;stroke-linecap:round;stroke-linejoin:round;stroke-miterlimit:10;" x1="140.204" y1="326.393" x2="140.204" y2="401.243"/>
		
			<line style="fill:none;stroke:#000000;stroke-width:15;stroke-linecap:round;stroke-linejoin:round;stroke-miterlimit:10;" x1="371.796" y1="401.243" x2="371.796" y2="326.393"/>
		
			<line style="fill:none;stroke:#000000;stroke-width:15;stroke-linecap:round;stroke-linejoin:round;stroke-miterlimit:10;" x1="175.98" y1="503.853" x2="336.02" y2="503.853"/>
		<g>
			
				<line style="fill:none;stroke:#000000;stroke-width:15;stroke-linecap:round;stroke-linejoin:round;stroke-miterlimit:10;" x1="194.327" y1="368.485" x2="194.327" y2="375.527"/>
			
				<line style="fill:none;stroke:#000000;stroke-width:15;stroke-linecap:round;stroke-linejoin:round;stroke-miterlimit:10;" x1="256" y1="368.485" x2="256" y2="375.527"/>
			
				<line style="fill:none;stroke:#000000;stroke-width:15;stroke-linecap:round;stroke-linejoin:round;stroke-miterlimit:10;" x1="317.673" y1="368.485" x2="317.673" y2="375.527"/>
		</g>
	</g>
</g>















</svg>
