<svg id="_x31_2_x5F_offroad" enable-background="new 0 0 512 512" height="512" viewBox="0 0 512 512" width="512" xmlns="http://www.w3.org/2000/svg"><path d="m256 312.958h151.375v59.196h-151.375z" fill="#d1d1c7"/><path d="m256 226.224h118.475v65.866h-118.475z" fill="#d1d1c7"/><path d="m256 132.014h74.166v42.045h-74.166z" fill="#d1d1c7"/><path d="m256 56.487h51.822v45.287h-51.822z" fill="#d1d1c7"/><path d="m104.625 312.958h151.375v59.196h-151.375z" fill="#efefea"/><path d="m137.522 226.224h118.478v65.866h-118.478z" fill="#efefea"/><path d="m181.834 132.014h74.166v42.045h-74.166z" fill="#efefea"/><path d="m204.177 56.487h51.823v45.287h-51.823z" fill="#efefea"/><g><path d="m137.383 286.5-1.407 1.088c-.193.15-19.623 14.988-41.09 14.99-1.685 0-3.359-.094-4.98-.279l-5.631-.644v20.743l4.789.182c.728.028 73.794 2.762 166.926 2.942h.01v-39.022z" fill="#7093a0"/><path d="m422.095 302.299c-1.619.186-3.295.279-4.981.279-21.372 0-40.898-14.844-41.089-14.99l-1.406-1.088h-118.619v39.022h.011c93.132-.181 166.198-2.914 166.926-2.942l4.789-.182v-20.743z" fill="#406f84"/><path d="m299.175 240.233c3.87 1.117 6.402 5.057 9.334 9.62 4.264 6.637 9.57 14.896 21.104 14.896l.398-.003c45.063-.759 75.238-1.871 75.537-1.883l4.814-.179v-20.374l-5.558.624c-.797.089-1.713.137-2.649.137-2.513 0-11.074-.404-15.701-5.601-17.821-20.013-22.751-68.454-22.799-68.941l-.442-4.516-107.212.045h-.001v74.052h3.134c13.016 0 32.687 0 40.041 2.123z" fill="#406f84"/><path d="m148.784 164.014-.44 4.517c-.047.487-4.952 48.898-22.799 68.94-4.627 5.196-13.188 5.601-15.702 5.601-.936 0-1.852-.047-2.648-.137l-5.558-.624v20.374l4.814.179c.299.012 30.474 1.124 75.537 1.883l.398.003c11.536 0 16.843-8.26 21.105-14.896 2.932-4.563 5.463-8.503 9.333-9.62 7.354-2.123 27.024-2.123 40.041-2.123h1.584 1.551v-74.052z" fill="#7093a0"/><path d="m188.876 96.161-4.11.008-.798 3.684c-.03.139-3.144 14.024-14.414 24.742-2.034 1.935-6.035 2.625-9.102 2.625-.562 0-1.107-.023-1.578-.068l-5.517-.524v15.002l4.828.152c.426.014 43.241 1.344 97.806 1.432h.009v-47.03z" fill="#7093a0"/><path d="m353.814 141.783 4.828-.152v-15.002l-5.517.524c-.156.015-.315.021-.475.021-2.108 0-8.222-1.338-19.431-13.728-6.684-7.387-11.684-14.92-11.733-14.996l-1.458-2.205-64.027-.06h-.001v47.03h.009c54.564-.088 97.38-1.419 97.805-1.432z" fill="#406f84"/><path d="m206.449 32.849-.44 4.517c-.554 5.681-3.304 21.898-9.296 28.628-.933 1.046-3.076 1.515-4.788 1.515-.388 0-.676-.023-.848-.042l-5.558-.624v14.778l4.814.179c.131.005 13.389.494 33.172.827l.177.001c7.076 0 10.001-6.564 11.937-10.907.646-1.451 1.714-3.845 2.396-4.459 3-.775 11.489-.775 16.6-.775h1.385v-33.617z" fill="#7093a0"/><path d="m273.985 67.262c.682.614 1.749 3.008 2.396 4.459 1.936 4.343 4.861 10.907 11.937 10.907l.177-.001c19.783-.333 33.041-.822 33.172-.827l4.814-.179v-14.778l-5.558.624c-.172.019-.459.042-.848.042-1.712 0-3.855-.469-4.787-1.515-5.973-6.707-8.736-22.941-9.297-28.628l-.44-4.517-49.549.021h-.002v33.617h1.386c5.11 0 13.599 0 16.599.775zm14.332 10.362v.005z" fill="#406f84"/></g><path d="m407.463 366.787h-302.926l-24.476 112.363h351.878z" fill="#72614e"/><g stroke-miterlimit="10"><path d="m91.333 469.34c-1.808-4.334.672-13.482 5.343-14.991 5.592-1.806 29.991-4.343 30.332 7.324.073 2.505.623 6.101-1.334 7.593-1.537 1.172-30.341 5.407-34.341.074" fill="#dadad4" stroke="#72614e" stroke-width="10"/><path d="m127.869 467.006c-1.409-4.333.524-13.482 4.168-14.99 4.361-1.806 23.392-4.343 23.657 7.324.058 2.505.486 6.101-1.04 7.592-1.199 1.172-23.665 5.408-26.785.074" fill="#dadad4" stroke="#72614e" stroke-width="10"/><path d="m160.369 384.006c-1.409-4.333.524-13.482 4.168-14.99 4.361-1.806 23.392-4.343 23.657 7.324.058 2.505.486 6.101-1.04 7.592-1.199 1.172-23.665 5.408-26.785.074" fill="#dadad4" stroke="#72614e" stroke-width="10"/><path d="m191.369 382.055c-1.409-3.43.524-10.671 4.168-11.865 4.361-1.429 23.392-3.438 23.657 5.797.058 1.982.486 4.829-1.04 6.01-1.199.927-23.665 4.278-26.785.058" fill="#dadad4" stroke="#72614e" stroke-width="10"/><path d="m159.333 467.34c-1.808-4.334.672-13.482 5.343-14.991 5.592-1.806 29.991-4.343 30.332 7.324.073 2.505.623 6.101-1.334 7.593-1.537 1.172-30.341 5.407-34.341.074" fill="#dadad4" stroke="#72614e" stroke-width="10"/><path d="m222.369 385.506c-1.409-4.333.524-13.482 4.168-14.99 4.361-1.806 23.392-4.343 23.657 7.324.058 2.505.486 6.101-1.04 7.592-1.199 1.172-23.665 5.408-26.785.074" fill="#dadad4" stroke="#72614e" stroke-width="10"/><path d="m250.756 384.84c-1.002-4.334.371-13.482 2.959-14.991 3.098-1.806 16.613-4.343 16.803 7.324.041 2.505.346 6.101-.738 7.593-.853 1.172-16.808 5.407-19.024.074" fill="#dadad4" stroke="#72614e" stroke-width="10"/><path d="m273.869 377.434c-1.409-2.652.524-8.252 4.168-9.176 4.361-1.104 23.392-2.657 23.657 4.482.058 1.534.486 3.734-1.04 4.647-1.199.718-23.665 3.31-26.785.047" fill="#dadad4" stroke="#72614e" stroke-width="10"/><path d="m304.869 380.102c-1.409-3.35.524-10.425 4.168-11.592 4.361-1.396 23.392-3.357 23.657 5.664.058 1.938.486 4.718-1.04 5.871-1.199.906-23.665 4.182-26.785.057" fill="#dadad4" stroke="#72614e" stroke-width="10"/><path d="m333.335 381.087c-1.001-3.351.372-10.426 2.96-11.593 3.098-1.396 16.613-3.357 16.802 5.664.041 1.938.346 4.719-.738 5.871-.852.907-16.808 4.182-19.024.058" fill="#dadad4" stroke="#72614e" stroke-width="10"/><path d="m107.333 448.006c-1.808-4.333.672-13.482 5.343-14.99 5.592-1.806 29.991-4.343 30.332 7.324.073 2.505.623 6.101-1.334 7.592-1.537 1.172-30.341 5.408-34.341.074" fill="#dadad4" stroke="#72614e" stroke-width="10"/><path d="m197.869 469.673c-1.409-4.333.524-13.482 4.168-14.991 4.361-1.805 23.392-4.342 23.657 7.324.058 2.506.486 6.102-1.04 7.593-1.199 1.172-23.665 5.407-26.785.074" fill="#dadad4" stroke="#72614e" stroke-width="10"/><path d="m227.833 468.34c-1.808-4.334.672-13.482 5.343-14.991 5.592-1.806 29.991-4.343 30.332 7.324.073 2.505.623 6.101-1.334 7.593-1.537 1.172-30.341 5.407-34.341.074" fill="#dadad4" stroke="#72614e" stroke-width="10"/><path d="m266.369 469.576c-1.409-6.141.524-19.105 4.168-21.242 4.361-2.559 23.392-6.154 23.657 10.378.058 3.55.486 8.646-1.04 10.759-1.199 1.66-23.665 7.662-26.785.105" fill="#dadad4" stroke="#72614e" stroke-width="10"/><path d="m145.203 449.673c-1.41-4.333.523-13.482 4.167-14.991 4.361-1.805 23.392-4.342 23.657 7.324.058 2.506.486 6.102-1.039 7.593-1.2 1.172-23.666 5.407-26.785.074" fill="#dadad4" stroke="#72614e" stroke-width="10"/><path d="m133.41 431.513c-2.876-4.576-2.803-15.611 1.369-18.36 4.994-3.291 28.154-11.526 31.479 1.781.714 2.857 2.173 6.863.646 9-1.2 1.679-28.222 12.824-33.494 7.579" fill="#dadad4" stroke="#72614e" stroke-width="10"/><path d="m209.91 449.013c-2.876-4.576-2.803-15.611 1.369-18.36 4.994-3.291 28.154-11.526 31.479 1.781.714 2.857 2.173 6.863.646 9-1.2 1.679-28.222 12.824-33.494 7.579" fill="#dadad4" stroke="#72614e" stroke-width="10"/><path d="m167.203 427.673c-1.41-4.333.523-13.482 4.167-14.991 4.361-1.805 23.392-4.342 23.657 7.324.058 2.506.486 6.102-1.039 7.593-1.2 1.172-23.666 5.407-26.785.074" fill="#dadad4" stroke="#72614e" stroke-width="10"/><path d="m120.703 409.673c-1.41-4.333.523-13.482 4.167-14.991 4.361-1.805 23.392-4.342 23.657 7.324.058 2.506.486 6.102-1.039 7.593-1.2 1.172-23.666 5.407-26.785.074" fill="#dadad4" stroke="#72614e" stroke-width="10"/><path d="m109.175 388.34c-1.41-4.334.523-13.482 4.167-14.991 4.361-1.806 23.393-4.343 23.658 7.324.057 2.505.486 6.101-1.04 7.593-1.199 1.172-23.665 5.407-26.785.074" fill="#dadad4" stroke="#72614e" stroke-width="10"/><path d="m104.662 406.173c-.704-4.333.261-13.482 2.08-14.991 2.176-1.805 11.675-4.342 11.807 7.324.029 2.506.243 6.102-.519 7.593-.598 1.172-11.811 5.407-13.368.074" fill="#dadad4" stroke="#72614e" stroke-width="10"/><path d="m141.465 387.84c-.813-4.334.302-13.482 2.401-14.991 2.514-1.806 13.48-4.343 13.634 7.324.033 2.505.28 6.101-.6 7.593-.691 1.172-13.637 5.407-15.435.074" fill="#dadad4" stroke="#72614e" stroke-width="10"/><path d="m99.703 428.173c-1.41-4.333.523-13.482 4.167-14.991 4.361-1.805 23.392-4.342 23.657 7.324.058 2.506.486 6.102-1.039 7.593-1.2 1.172-23.666 5.407-26.785.074" fill="#dadad4" stroke="#72614e" stroke-width="10"/><path d="m176.902 442.045c.31-4.547 5.518-12.313 9.461-12.352 4.721-.047 23.322 4.701 19.215 15.624-.882 2.346-1.826 5.842-3.799 6.655-1.55.641-23.972-3.815-24.877-9.927" fill="#dadad4" stroke="#72614e" stroke-width="10"/><path d="m194.703 426.173c-1.41-4.333.523-13.482 4.167-14.991 4.361-1.805 23.392-4.342 23.657 7.324.058 2.506.486 6.102-1.039 7.593-1.2 1.172-23.666 5.407-26.785.074" fill="#dadad4" stroke="#72614e" stroke-width="10"/><path d="m182.91 408.013c-2.876-4.576-2.803-15.611 1.369-18.36 4.994-3.291 28.154-11.526 31.479 1.781.714 2.857 2.173 6.863.646 9-1.2 1.679-28.222 12.824-33.494 7.579" fill="#dadad4" stroke="#72614e" stroke-width="10"/><path d="m156.83 406.002c-2.161-3.959-2.491-13.262.32-15.438 3.365-2.603 19.216-8.748 21.991 2.59.597 2.436 1.751 5.863.761 7.613-.777 1.376-19.218 9.84-23.072 5.235" fill="#dadad4" stroke="#72614e" stroke-width="10"/><path d="m216.987 404.173c-2.277-4.333.847-13.482 6.732-14.991 7.046-1.805 37.79-4.342 38.22 7.324.092 2.506.785 6.102-1.681 7.593-1.937 1.172-38.231 5.407-43.271.074" fill="#dadad4" stroke="#72614e" stroke-width="10"/><path d="m225.766 421.343c-.078-4.556 4.452-12.737 8.378-13.11 4.698-.448 23.637 2.703 20.472 13.936-.68 2.412-1.322 5.976-3.219 6.954-1.491.768-24.211-1.767-25.631-7.78" fill="#dadad4" stroke="#72614e" stroke-width="10"/><path d="m419.329 464.101c1.808-4.333-.672-13.482-5.343-14.991-5.592-1.805-29.99-4.342-30.332 7.324-.073 2.506-.623 6.102 1.334 7.593 1.537 1.171 30.341 5.407 34.341.074" fill="#dadad4" stroke="#72614e" stroke-width="10"/><path d="m381.793 466.268c1.41-4.334-.523-13.482-4.168-14.99-4.361-1.806-23.392-4.344-23.657 7.323-.058 2.505-.486 6.101 1.04 7.593 1.199 1.171 23.665 5.407 26.785.074" fill="#dadad4" stroke="#72614e" stroke-width="10"/><path d="m350.829 468.101c1.808-4.333-.672-13.482-5.343-14.991-5.592-1.805-29.99-4.342-30.332 7.324-.073 2.506-.623 6.102 1.334 7.593 1.537 1.171 30.341 5.407 34.341.074" fill="#dadad4" stroke="#72614e" stroke-width="10"/><path d="m403.329 442.768c1.808-4.334-.672-13.482-5.343-14.99-5.592-1.806-29.99-4.344-30.332 7.323-.073 2.505-.623 6.101 1.334 7.593 1.537 1.171 30.341 5.407 34.341.074" fill="#dadad4" stroke="#72614e" stroke-width="10"/><path d="m312.956 464.434c.912-4.333-.339-13.482-2.694-14.99-2.82-1.805-15.125-4.343-15.297 7.324-.037 2.505-.314 6.102.673 7.592.775 1.171 15.301 5.408 17.318.074" fill="#dadad4" stroke="#72614e" stroke-width="10"/><path d="m266.956 448.434c.912-4.333-.339-13.482-2.694-14.99-2.82-1.805-15.125-4.343-15.297 7.324-.037 2.505-.314 6.102.673 7.592.775 1.171 15.301 5.408 17.318.074" fill="#dadad4" stroke="#72614e" stroke-width="10"/><path d="m365.459 444.434c1.41-4.333-.523-13.482-4.167-14.99-4.361-1.805-23.392-4.343-23.657 7.324-.058 2.505-.486 6.102 1.039 7.592 1.2 1.171 23.666 5.408 26.785.074" fill="#dadad4" stroke="#72614e" stroke-width="10"/><path d="m377.252 426.273c2.876-4.576 2.803-15.611-1.369-18.36-4.994-3.291-28.153-11.526-31.479 1.782-.715 2.857-2.174 6.862-.646 9 1.2 1.68 28.222 12.824 33.494 7.578" fill="#dadad4" stroke="#72614e" stroke-width="10"/><path d="m300.752 443.773c2.876-4.576 2.803-15.611-1.369-18.36-4.994-3.291-28.153-11.526-31.479 1.782-.715 2.857-2.174 6.862-.646 9 1.2 1.68 28.222 12.824 33.494 7.578" fill="#dadad4" stroke="#72614e" stroke-width="10"/><path d="m343.459 422.434c1.41-4.333-.523-13.482-4.167-14.99-4.361-1.806-23.392-4.343-23.657 7.324-.058 2.505-.486 6.102 1.039 7.592 1.2 1.171 23.666 5.408 26.785.074" fill="#dadad4" stroke="#72614e" stroke-width="10"/><path d="m389.959 404.434c1.41-4.333-.523-13.482-4.167-14.99-4.361-1.806-23.392-4.343-23.657 7.324-.058 2.505-.486 6.102 1.039 7.592 1.2 1.171 23.666 5.408 26.785.074" fill="#dadad4" stroke="#72614e" stroke-width="10"/><path d="m401.487 384.101c1.41-4.333-.523-13.482-4.167-14.991-4.361-1.805-23.393-4.342-23.658 7.324-.057 2.506-.486 6.102 1.04 7.593 1.199 1.171 23.665 5.407 26.785.074" fill="#dadad4" stroke="#72614e" stroke-width="10"/><path d="m408.155 400.934c.813-4.333-.302-13.482-2.401-14.99-2.514-1.806-13.48-4.343-13.634 7.324-.032 2.505-.28 6.102.6 7.592.691 1.171 13.637 5.408 15.435.074" fill="#dadad4" stroke="#72614e" stroke-width="10"/><path d="m369.197 384.006c.813-4.333-.302-13.482-2.401-14.99-2.514-1.806-13.48-4.343-13.634 7.324-.033 2.505-.28 6.101.6 7.592.691 1.172 13.637 5.408 15.435.074" fill="#dadad4" stroke="#72614e" stroke-width="10"/><path d="m410.959 422.934c1.41-4.333-.523-13.482-4.167-14.99-4.361-1.806-23.392-4.343-23.657 7.324-.058 2.505-.486 6.102 1.039 7.592 1.2 1.171 23.666 5.408 26.785.074" fill="#dadad4" stroke="#72614e" stroke-width="10"/><path d="m333.76 436.807c-.31-4.547-5.518-12.313-9.461-12.353-4.72-.047-23.322 4.702-19.215 15.624.883 2.346 1.826 5.842 3.799 6.656 1.551.64 23.973-3.816 24.877-9.927" fill="#dadad4" stroke="#72614e" stroke-width="10"/><path d="m315.959 420.934c1.41-4.333-.523-13.482-4.167-14.99-4.361-1.806-23.392-4.343-23.657 7.324-.058 2.505-.486 6.102 1.039 7.592 1.2 1.171 23.666 5.408 26.785.074" fill="#dadad4" stroke="#72614e" stroke-width="10"/><path d="m327.765 404.831c2.957-4.213 3.112-14.228-.983-16.637-4.902-2.884-27.786-9.88-31.37 2.268-.771 2.608-2.306 6.273-.829 8.183 1.159 1.5 27.826 11.055 33.182 6.186" fill="#dadad4" stroke="#72614e" stroke-width="10"/><path d="m353.832 400.764c2.161-3.959 2.491-13.263-.32-15.438-3.365-2.604-19.216-8.748-21.991 2.59-.597 2.435-1.751 5.862-.761 7.612.778 1.376 19.219 9.84 23.072 5.236" fill="#dadad4" stroke="#72614e" stroke-width="10"/><path d="m293.959 398.934c1.41-4.333-.523-13.482-4.167-14.99-4.361-1.806-23.392-4.343-23.657 7.324-.058 2.505-.486 6.102 1.039 7.592 1.2 1.171 23.666 5.408 26.785.074" fill="#dadad4" stroke="#72614e" stroke-width="10"/><path d="m284.26 413.307c-.31-4.547-5.518-12.313-9.461-12.353-4.72-.047-23.322 4.702-19.215 15.624.883 2.346 1.826 5.842 3.799 6.656 1.551.64 23.973-3.816 24.877-9.927" fill="#dadad4" stroke="#72614e" stroke-width="10"/><path d="m185.518 332.578h14.991v21.49h-14.991z" fill="#6991a3" stroke="#1d3551" stroke-width="6"/><path d="m200.509 332.578h14.991v21.49h-14.991z" fill="#6991a3" stroke="#1d3551" stroke-width="6"/><path d="m130.026 332.578h14.991v21.49h-14.991z" fill="#6991a3" stroke="#1d3551" stroke-width="6"/><path d="m145.018 332.578h14.991v21.49h-14.991z" fill="#6991a3" stroke="#1d3551" stroke-width="6"/><g fill="#6991a3" stroke="#1d3551" stroke-width="6"><path d="m241.009 332.578h14.991v21.49h-14.991z"/><path d="m255.997 332.578h14.991v21.49h-14.991z"/></g><path d="m311.488 332.584h14.99v21.49h-14.99z" fill="#6991a3" stroke="#1d3551" stroke-width="6"/><path d="m296.497 332.584h14.991v21.49h-14.991z" fill="#6991a3" stroke="#1d3551" stroke-width="6"/><path d="m366.979 332.584h14.992v21.49h-14.992z" fill="#6991a3" stroke="#1d3551" stroke-width="6"/><path d="m351.988 332.584h14.99v21.49h-14.99z" fill="#6991a3" stroke="#1d3551" stroke-width="6"/><path d="m188.146 184.329h135.707v35.195h-135.707z" fill="#efefea" stroke="#27303f" stroke-width="10"/><g fill="none" stroke="#27303f" stroke-width="10"><path d="m208.336 200.718v10.073"/><path d="m223.833 200.745v10.073"/></g><g fill="none" stroke="#27303f" stroke-width="10"><path d="m248.248 200.677v10.073"/><path d="m263.745 200.704v10.073"/></g><g fill="none" stroke="#27303f" stroke-width="10"><path d="m288.67 200.664v10.073"/><path d="m304.167 200.69v10.074"/></g><g fill="none" stroke="#27303f" stroke-width="10"><g><path d="m238.044 80.736v8.992"/><path d="m249.789 80.76v8.992"/></g><g><path d="m262.211 80.724v8.992"/><path d="m273.956 80.748v8.992"/></g></g></g><g><g><path d="m153.29 268.885h10v10.072h-10z" fill="#27303f"/></g><g><path d="m168.787 268.911h10v10.073h-10z" fill="#27303f"/></g></g><g><g><path d="m334.213 268.857h10v10.072h-10z" fill="#27303f"/></g><g><path d="m349.71 268.885h10v10.072h-10z" fill="#27303f"/></g></g><g><g><path d="m192.852 268.871h10v10.072h-10z" fill="#27303f"/></g><g><path d="m208.349 268.898h10v10.072h-10z" fill="#27303f"/></g></g><g><g><path d="m296.99 268.871h10v10.072h-10z" fill="#27303f"/></g><g><path d="m312.486 268.898h10v10.072h-10z" fill="#27303f"/></g></g><g><g><path d="m226.417 246.976h10v31.991h-10z" fill="#27303f"/></g><g><path d="m238.854 246.942h10v31.992h-10z" fill="#27303f"/></g><g><path d="m250.943 246.993h10v31.991h-10z" fill="#27303f"/></g><g><path d="m263.381 246.959h10v31.992h-10z" fill="#27303f"/></g><g><path d="m275.583 246.942h10v31.992h-10z" fill="#27303f"/></g></g><path d="m341.111 176.39c-.662.114-1.35.172-2.044.172-8.02 0-16.49-7.77-19.07-10.756l-1.497-1.747h-62.5v33.359h.015c40.402-.418 85.856-2.271 86.232-2.293l4.714-.27v-19.474z" fill="#588899"/><path d="m193.5 164.059-1.497 1.746c-.092.107-9.486 10.756-19.071 10.757-.692 0-1.38-.058-2.043-.172l-5.85-1.008v19.474l4.714.27c.376.021 38.132 2.152 86.232 2.293h.015v-33.359h-62.5z" fill="#99b4bc"/><path d="m137.523 282.09h118.477v4.41h-118.477z" fill="#3f4651"/><path d="m256 282.09h118.477v4.41h-118.477z" fill="#27303f"/><path d="m181.834 159.649h74.166v4.41h-74.166z" fill="#3f4651"/><path d="m256 159.649h74.166v4.41h-74.166z" fill="#27303f"/><path d="m204.121 91.773h51.822v4.41h-51.822z" fill="#3f4651"/><path d="m255.943 91.773h51.822v4.41h-51.822z" fill="#27303f"/><path d="m104.625 362.377h151.375v4.41h-151.375z" fill="#3f4651"/><path d="m256 362.377h151.375v4.41h-151.375z" fill="#27303f"/><path d="m165.057 191.75-.018 3.106s57.086 3.582 90.961 2.563v-2.74c-37.571.258-64.941-1.492-90.943-2.929z" fill="#3f4651"/><path d="m346.943 191.75.018 3.106s-57.086 3.582-90.961 2.563v-2.74c37.571.258 64.941-1.492 90.943-2.929z" fill="#27303f"/><g><g><path d="m256.006 110.539-3.109 6.02c-8.996 17.414-35.975 26.294-36.664 26.365 0 0 20.036.292 39.775.292v-32.673z" fill="#3f4651"/><path d="m295.345 142.924c-.171-.016-27.166-8.819-36.229-26.365l-3.107-6.016v32.673h.009c19.74 0 39.327-.292 39.327-.292z" fill="#27303f"/></g><g><path d="m256.006 120.304-2.297 3.744c-6.646 10.831-21.638 16.407-22.147 16.452 0 0 9.865.129 24.446.129v-20.322z" fill="#efefea"/></g><g><path d="m256.001 120.304 2.297 3.744c6.646 10.831 21.639 16.407 22.147 16.452 0 0-9.864.129-24.445.129v-20.322z" fill="#efefea"/></g></g><g><g><path d="m216.668 143.314-3.109 6.02c-8.996 17.414-35.974 26.294-36.663 26.365 0 0 20.036.292 39.774.292v-32.674z" fill="#3f4651"/><path d="m256.008 175.699c-.171-.016-27.167-8.819-36.23-26.365l-3.107-6.017v32.674h.009c19.74 0 39.328-.292 39.328-.292z" fill="#27303f"/></g><g><path d="m216.669 153.079-2.297 3.744c-6.646 10.831-21.639 16.407-22.147 16.452 0 0 9.864.129 24.445.129v-20.322z" fill="#efefea"/></g><g><path d="m216.664 153.079 2.297 3.744c6.646 10.831 21.638 16.407 22.147 16.452 0 0-9.865.129-24.446.129v-20.322z" fill="#efefea"/></g></g><g><g><path d="m295.562 143.316-3.109 6.02c-8.996 17.414-35.974 26.294-36.663 26.365 0 0 20.036.292 39.774.292v-32.673z" fill="#3f4651"/><path d="m334.901 175.701c-.171-.016-27.167-8.819-36.23-26.365l-3.107-6.017v32.673h.009c19.74.001 39.328-.291 39.328-.291z" fill="#27303f"/></g><g><path d="m295.563 153.081-2.297 3.744c-6.646 10.831-21.639 16.407-22.147 16.451 0 0 9.864.129 24.445.129v-20.322z" fill="#efefea"/></g><g><path d="m295.558 153.081 2.297 3.744c6.646 10.831 21.638 16.407 22.147 16.451 0 0-9.865.129-24.445.129v-20.322z" fill="#efefea"/></g></g></svg>